<svg width="24" height="24" viewBox="0 0 44 19" fill="none" xmlns="http://www.w3.org/2000/svg">
<path d="M5.64638 0.555588C5.77357 0.221105 6.09421 0 6.45206 0H18.4711C19.0746 0 19.4913 0.604245 19.2768 1.16836L17.9929 4.54443C17.8657 4.87891 17.5451 5.10002 17.1872 5.10002H5.1682C4.56467 5.10002 4.148 4.49577 4.36252 3.93165L5.64638 0.555588Z" fill="black"/>
<path d="M23.1732 0.555588C23.3004 0.221105 23.6211 0 23.9789 0H42.8148C43.4 0 43.8152 0.570824 43.6348 1.12762L42.5411 4.50368C42.426 4.8592 42.0948 5.10002 41.7211 5.10002H22.6951C22.0915 5.10002 21.6749 4.49577 21.8894 3.93165L23.1732 0.555588Z" fill="black"/>
<path d="M28.5489 6.24843C28.1897 6.24843 27.8682 6.47112 27.7419 6.80733L24.7199 14.8536C24.5082 15.4171 24.9248 16.0186 25.5268 16.0186L30.5915 16.0186C30.9426 16.0186 31.2587 15.8056 31.3905 15.4802L34.6492 7.43398C34.8787 6.86729 34.4616 6.24843 33.8502 6.24843L28.5489 6.24843Z" fill="black"/>
<path fill-rule="evenodd" clip-rule="evenodd" d="M3.99763 6.19757C4.00099 6.19753 4.00436 6.19751 4.00774 6.19751L9.88744 6.19751C9.88943 6.19751 9.89141 6.19753 9.89339 6.19757H22.9189C23.5224 6.19757 23.9391 6.80181 23.7246 7.36593L22.4407 10.742C22.3135 11.0765 21.9929 11.2976 21.6351 11.2976H8.93916C8.58235 11.2976 8.26242 11.5174 8.13449 11.8505L6.71088 15.5573C6.58295 15.8904 6.26302 16.1102 5.90621 16.1102H0.862781C0.258043 16.1102 -0.158704 15.5037 0.0581095 14.9392L3.20307 6.75044C3.28693 6.53207 3.45332 6.36238 3.65853 6.27139C3.71791 6.24506 3.7772 6.2149 3.841 6.20269C3.8586 6.19932 3.87669 6.19757 3.89507 6.19757H3.99763Z" fill="black"/>
</svg>
